<svg width="500" height="500" viewBox="0 0 500 500" fill="none" xmlns="http://www.w3.org/2000/svg">
<path d="M136.31 126.37C127.223 126.37 118.509 122.76 112.084 116.335C105.659 109.91 102.05 101.196 102.05 92.11C102.05 83.0237 105.659 74.3095 112.084 67.8845C118.509 61.4595 127.223 57.85 136.31 57.85C145.396 57.85 154.11 61.4595 160.535 67.8845C166.96 74.3095 170.57 83.0237 170.57 92.11C170.57 101.196 166.96 109.91 160.535 116.335C154.11 122.76 145.396 126.37 136.31 126.37Z" fill="#B141E5"/>
<path d="M127.86 84.48H120.77V107.39H127.86V84.48Z" fill="white"/>
<path d="M124.28 81.48C125.118 81.4879 125.94 81.2466 126.641 80.7866C127.342 80.3267 127.89 79.6689 128.216 78.8967C128.543 78.1245 128.632 77.2727 128.473 76.4496C128.315 75.6264 127.915 74.869 127.325 74.2734C126.735 73.6778 125.982 73.2709 125.16 73.1044C124.338 72.938 123.486 73.0194 122.71 73.3383C121.935 73.6573 121.272 74.1994 120.806 74.8958C120.339 75.5923 120.09 76.4117 120.09 77.25C120.087 78.3658 120.527 79.4372 121.312 80.2299C122.097 81.0226 123.164 81.4721 124.28 81.48V81.48Z" fill="white"/>
<path d="M139.2 95.36C139.2 92.14 140.68 90.22 143.52 90.22C146.12 90.22 147.38 92.06 147.38 95.36V107.36H154.43V92.88C154.43 86.74 150.96 83.78 146.1 83.78C144.722 83.7622 143.362 84.1009 142.153 84.7632C140.944 85.4255 139.927 86.3889 139.2 87.56V84.48H132.39V107.38H139.2V95.36Z" fill="white"/>
<path d="M182.22 23.89L186.91 32.46L195.49 37.16L186.91 41.85L182.22 50.42L177.53 41.85L168.95 37.16L177.53 32.46L182.22 23.89Z" fill="#F4F4F4"/>
<path d="M377.87 256.27L381.39 262.71L387.82 266.22L381.39 269.74L377.87 276.18L374.35 269.74L367.92 266.22L374.35 262.71L377.87 256.27Z" fill="#F4F4F4"/>
<path d="M387.82 224.51L389.41 227.41L392.31 229L389.41 230.59L387.82 233.49L386.24 230.59L383.33 229L386.24 227.41L387.82 224.51Z" fill="#F4F4F4"/>
<path d="M148.71 27.11L150.3 30.02L153.2 31.6L150.3 33.19L148.71 36.09L147.13 33.19L144.22 31.6L147.13 30.02L148.71 27.11Z" fill="#F4F4F4"/>
<path d="M69.13 296.76C70.9751 295.915 72.5323 294.548 73.6093 292.827C74.6862 291.107 75.2357 289.109 75.19 287.08C75.19 281.35 70.74 276.75 65.37 276.79C60 276.83 55.69 281.52 55.74 287.25C55.7255 289.296 56.3183 291.3 57.4433 293.009C58.5683 294.718 60.175 296.055 62.06 296.85C47.12 299.3 48 315.56 48 315.56L83.39 315.26C83.39 315.26 84 298.81 69.13 296.76Z" fill="#F4F4F4"/>
<path d="M408.64 403.94C408.391 402.657 407.693 401.505 406.673 400.689C405.652 399.872 404.375 399.445 403.069 399.484C401.763 399.522 400.513 400.024 399.542 400.899C398.571 401.773 397.943 402.965 397.77 404.26C397.588 402.967 396.953 401.78 395.978 400.912C395.003 400.043 393.751 399.549 392.445 399.518C391.14 399.487 389.865 399.92 388.85 400.741C387.834 401.562 387.143 402.717 386.9 404C386.638 405.896 387.118 407.819 388.24 409.37C389.35 410.899 390.655 412.277 392.12 413.47C394.12 415.24 395.93 416.89 397.91 418.65C399.91 416.87 401.54 415.2 403.5 413.42C404.959 412.215 406.254 410.823 407.35 409.28C408.444 407.729 408.906 405.819 408.64 403.94V403.94Z" fill="#F4F4F4"/>
<path d="M431.69 193.15L435.48 192.4L441.48 179.22L439.98 171.65C439.98 171.65 445.77 170.13 447.05 180.18C448.33 190.23 448.57 187.56 448.57 187.56C448.57 187.56 461.02 185.14 462.27 186.01C463.18 186.65 465.97 198.95 467.43 205.63C467.834 207.231 467.69 208.921 467.021 210.431C466.352 211.941 465.197 213.183 463.74 213.96C463.325 214.164 462.884 214.312 462.43 214.4C459.33 215.02 442.97 215.64 442.97 215.64L436.42 216.94L431.69 193.15Z" fill="#F4F4F4"/>
<path d="M420.42 193.22L427.89 218.7L434.39 217.41L429.35 192L420.42 193.22Z" fill="#F4F4F4"/>
<path d="M393.43 183.15C383.738 187.861 372.573 188.53 362.389 185.01C352.204 181.49 343.834 174.069 339.12 164.38V164.38C334.409 154.689 333.74 143.523 337.26 133.339C340.78 123.154 348.2 114.785 357.89 110.07V110.07C362.688 107.736 367.899 106.37 373.226 106.051C378.552 105.731 383.889 106.463 388.933 108.206C393.976 109.949 398.626 112.669 402.618 116.209C406.611 119.749 409.866 124.041 412.2 128.84V128.84C414.534 133.638 415.899 138.85 416.219 144.176C416.539 149.502 415.807 154.839 414.064 159.883C412.321 164.926 409.601 169.576 406.061 173.569C402.521 177.561 398.229 180.817 393.43 183.15V183.15Z" fill="#B141E5"/>
<path d="M365.62 155.69C365.769 155.687 365.915 155.65 366.048 155.583C366.181 155.515 366.297 155.419 366.388 155.302C366.479 155.184 366.543 155.047 366.574 154.901C366.606 154.756 366.604 154.605 366.57 154.46C366.47 153.97 366.2 152.73 366.1 152.22C365.96 151.51 365.79 151.32 365.1 151C363.308 150.176 361.883 148.72 361.1 146.91C358.04 140.61 360.01 132.68 367.57 129.01C374.26 125.75 379.93 128.01 382.57 133.51C386.06 140.7 385.83 148.31 381.11 150.61C380.521 150.934 379.865 151.115 379.194 151.139C378.523 151.163 377.855 151.029 377.245 150.748C376.635 150.467 376.1 150.046 375.682 149.52C375.264 148.994 374.976 148.378 374.84 147.72C374.06 144.2 373.84 140.09 372.74 137.81C371.74 135.81 369.82 134.6 367.56 135.7C364.89 137 364.09 140.8 365.89 144.49C366.532 145.855 367.455 147.068 368.6 148.05C368.6 148.05 371.5 160.93 372 163.19C373 167.68 376.22 172.19 376.53 172.7C376.574 172.757 376.634 172.8 376.701 172.824C376.769 172.848 376.842 172.853 376.912 172.837C376.982 172.821 377.047 172.786 377.098 172.735C377.148 172.684 377.184 172.62 377.2 172.55C377.29 172.11 378.56 166.65 377.73 162.21C377.5 160.95 376.15 154.5 376.15 154.5C377.82 155.73 381.06 155.96 383.75 154.65C391.75 150.75 393.65 140.8 388.89 131.02C385.3 123.63 375.68 119.79 366.17 124.42C354.32 130.18 352.48 141.57 355.92 148.65C358 152.94 361.45 156 365.62 155.69Z" fill="white"/>
<path d="M434 297.76C430.561 296.449 427.414 294.472 424.739 291.943C422.065 289.414 419.915 286.383 418.413 283.023C416.912 279.662 416.087 276.039 415.987 272.359C415.887 268.68 416.513 265.017 417.83 261.58V261.58C419.14 258.141 421.116 254.994 423.644 252.32C426.171 249.645 429.201 247.495 432.561 245.992C435.92 244.489 439.543 243.663 443.221 243.562C446.9 243.46 450.563 244.085 454 245.4V245.4C457.439 246.711 460.586 248.688 463.26 251.217C465.935 253.746 468.085 256.777 469.586 260.137C471.088 263.498 471.913 267.121 472.013 270.801C472.113 274.48 471.487 278.143 470.17 281.58V281.58C468.859 285.019 466.884 288.166 464.356 290.84C461.828 293.515 458.798 295.665 455.439 297.168C452.08 298.671 448.457 299.497 444.778 299.598C441.1 299.7 437.437 299.075 434 297.76V297.76Z" fill="#B141E5"/>
<path fill-rule="evenodd" clip-rule="evenodd" d="M458.64 276.34C459.89 272.664 459.674 268.648 458.039 265.127C456.403 261.605 453.474 258.85 449.859 257.433C446.244 256.017 442.222 256.048 438.63 257.52C435.037 258.993 432.15 261.794 430.57 265.34C430.48 265.54 430.4 265.75 430.32 265.95C429.341 268.498 429.085 271.266 429.58 273.95L424.17 280.48L432.93 280.98C434.618 282.976 436.796 284.5 439.251 285.401C441.705 286.302 444.352 286.55 446.931 286.121C449.51 285.691 451.933 284.599 453.963 282.951C455.993 281.303 457.56 279.156 458.51 276.72C458.56 276.596 458.604 276.469 458.64 276.34V276.34ZM439.92 283.07C437.602 282.19 435.594 280.646 434.15 278.63L429.04 278.34L432.19 274.54C431.484 271.98 431.613 269.261 432.56 266.78C432.71 266.4 432.88 266.02 433.06 265.66C434.485 262.838 436.911 260.649 439.865 259.523C442.818 258.396 446.086 258.412 449.028 259.568C451.971 260.724 454.376 262.936 455.772 265.772C457.169 268.608 457.457 271.863 456.58 274.9C456.49 275.22 456.39 275.53 456.27 275.84C455.059 278.965 452.656 281.482 449.591 282.838C446.525 284.193 443.047 284.277 439.92 283.07V283.07Z" fill="white"/>
<path fill-rule="evenodd" clip-rule="evenodd" d="M449.8 276.6C449.51 276.3 448.14 274.82 447.86 274.6C447.58 274.38 447.38 274.22 447.02 274.48C446.66 274.74 445.69 275.25 445.41 275.4C445.13 275.55 444.91 275.5 444.63 275.2C443.764 274.408 443.043 273.47 442.5 272.43C442.014 271.452 441.677 270.407 441.5 269.33C441.44 268.91 441.68 268.79 441.92 268.69C442.16 268.59 442.42 268.42 442.67 268.29L442.86 268.17C442.99 268.069 443.114 267.959 443.23 267.84C443.315 267.765 443.379 267.67 443.416 267.563C443.452 267.456 443.461 267.341 443.44 267.23C443.44 267.03 443.37 265.07 443.34 264.28C443.31 263.49 442.98 263.49 442.78 263.41C442.58 263.33 442.36 263.21 442.13 263.13C441.953 263.066 441.765 263.04 441.577 263.052C441.39 263.064 441.207 263.114 441.04 263.2C440.511 263.422 440.034 263.75 439.638 264.165C439.242 264.579 438.936 265.071 438.74 265.61C438.594 266.006 438.504 266.42 438.47 266.84C438.412 267.802 438.524 268.767 438.8 269.69C438.89 269.98 439.74 274.4 442.72 277.12C445.7 279.84 445.89 279.38 446.55 279.56C447.073 279.662 447.613 279.649 448.131 279.521C448.649 279.393 449.133 279.154 449.55 278.82C449.975 278.398 450.264 277.858 450.38 277.27C450.27 277.08 450.08 276.9 449.8 276.6Z" fill="white"/>
<path d="M69.6298 168.24C63.9621 168.24 58.5265 165.989 54.5189 161.981C50.5112 157.973 48.2598 152.538 48.2598 146.87V146.87C48.2598 141.202 50.5112 135.767 54.5189 131.759C58.5265 127.751 63.9621 125.5 69.6298 125.5V125.5C72.4361 125.5 75.215 126.053 77.8077 127.127C80.4004 128.201 82.7563 129.775 84.7406 131.759C86.725 133.744 88.2991 136.099 89.3731 138.692C90.447 141.285 90.9998 144.064 90.9998 146.87V146.87C90.9998 149.676 90.447 152.455 89.3731 155.048C88.2991 157.641 86.725 159.996 84.7406 161.981C82.7563 163.965 80.4004 165.539 77.8077 166.613C75.215 167.687 72.4361 168.24 69.6298 168.24Z" fill="#B141E5"/>
<path d="M58.25 154C60.3024 155.309 62.6747 156.03 65.1085 156.084C67.5423 156.138 69.9442 155.523 72.0525 154.306C74.1608 153.089 75.8946 151.316 77.065 149.182C78.2354 147.047 78.7975 144.632 78.69 142.2C79.5934 141.544 80.3751 140.735 81 139.81C80.1439 140.186 79.2378 140.435 78.31 140.55C79.288 139.978 80.0266 139.073 80.39 138C79.4644 138.55 78.4488 138.933 77.39 139.13C76.6887 138.363 75.7519 137.851 74.7275 137.675C73.703 137.499 72.6492 137.67 71.7322 138.159C70.8153 138.649 70.0873 139.429 69.6632 140.378C69.2391 141.327 69.143 142.39 69.39 143.4C67.532 143.304 65.7147 142.82 64.0559 141.977C62.397 141.135 60.9335 139.954 59.76 138.51C59.1654 139.54 58.9844 140.758 59.2536 141.916C59.5228 143.075 60.2221 144.088 61.21 144.75C60.4668 144.731 59.7394 144.532 59.09 144.17C59.0776 145.259 59.4453 146.318 60.1298 147.165C60.8143 148.012 61.7727 148.594 62.84 148.81C62.152 148.997 61.4302 149.025 60.73 148.89C61.0294 149.816 61.6103 150.627 62.3918 151.207C63.1733 151.788 64.1165 152.111 65.09 152.13C63.142 153.623 60.6868 154.295 58.25 154V154Z" fill="white"/>
<path d="M108 407.61C98.5091 409.864 88.512 408.258 80.2052 403.144C71.8985 398.031 65.9617 389.829 63.6996 380.34C62.5781 375.636 62.3947 370.757 63.16 365.982C63.9253 361.207 65.6242 356.63 68.1596 352.512C70.695 348.394 74.0172 344.816 77.9363 341.983C81.8553 339.15 86.2943 337.117 90.9996 336V336C95.7009 334.88 100.577 334.696 105.349 335.46C110.121 336.224 114.696 337.921 118.813 340.453C122.929 342.985 126.507 346.304 129.341 350.219C132.175 354.134 134.21 358.569 135.33 363.27V363.27C136.451 367.976 136.633 372.857 135.866 377.634C135.098 382.41 133.397 386.989 130.858 391.107C128.32 395.225 124.994 398.803 121.072 401.634C117.15 404.466 112.708 406.497 108 407.61V407.61Z" fill="#455A64"/>
<path d="M95.6697 355.72C100.91 354.47 101.54 354.34 103.67 353.94C104.916 353.66 106.201 353.596 107.47 353.75C108.398 353.862 109.29 354.18 110.08 354.68C110.877 355.164 111.559 355.816 112.08 356.59C112.787 357.654 113.308 358.831 113.62 360.07C114.21 362.12 114.38 362.74 115.62 367.98C116.86 373.22 116.99 373.85 117.39 375.98C117.675 377.226 117.739 378.512 117.58 379.78C117.478 380.711 117.159 381.604 116.65 382.39C116.172 383.189 115.523 383.872 114.75 384.39C113.682 385.097 112.502 385.618 111.26 385.93C109.26 386.52 108.6 386.69 103.36 387.93C98.1197 389.17 97.4897 389.31 95.3597 389.71C94.1105 389.995 92.8211 390.059 91.5497 389.9C90.6207 389.791 89.7284 389.473 88.9397 388.97C88.1503 388.471 87.4865 387.797 86.9997 387C86.2856 385.938 85.7612 384.761 85.4497 383.52C84.8697 381.47 84.6997 380.86 83.4497 375.62C82.1997 370.38 82.0697 369.75 81.6697 367.62C81.3951 366.369 81.3309 365.082 81.4797 363.81C81.6027 362.885 81.9191 361.997 82.4085 361.202C82.8978 360.408 83.549 359.726 84.3197 359.2C85.3824 358.488 86.5595 357.964 87.7997 357.65C89.7997 357.07 90.4697 356.9 95.7097 355.65M94.8697 352.11C89.5397 353.38 88.8697 353.56 86.7997 354.16C85.18 354.562 83.6411 355.239 82.2497 356.16C81.0692 356.976 80.0712 358.029 79.319 359.251C78.5667 360.473 78.0766 361.838 77.8797 363.26C77.6696 364.927 77.744 366.618 78.0997 368.26C78.5097 370.37 78.6397 371.05 79.9097 376.38C81.1797 381.71 81.3597 382.38 81.9097 384.44C82.3097 386.06 82.9863 387.6 83.9097 388.99C84.7234 390.215 85.7994 391.243 87.0597 392C88.2724 392.763 89.6378 393.251 91.0597 393.43C92.7268 393.641 94.4176 393.567 96.0597 393.21C98.1697 392.81 98.8497 392.67 104.18 391.4C109.51 390.13 110.18 389.95 112.24 389.4C113.857 388.991 115.395 388.315 116.79 387.4C117.982 386.596 118.986 385.541 119.73 384.31C120.489 383.094 120.98 381.731 121.17 380.31C121.377 378.642 121.299 376.952 120.94 375.31C120.54 373.19 120.4 372.52 119.13 367.19C117.86 361.86 117.68 361.19 117.13 359.12C116.719 357.503 116.043 355.966 115.13 354.57C114.325 353.38 113.27 352.38 112.04 351.64C110.829 350.871 109.463 350.379 108.04 350.2C106.373 349.989 104.682 350.063 103.04 350.42C100.92 350.83 100.25 350.96 94.9197 352.23" fill="white"/>
<path d="M97.0998 361.73C95.1067 362.205 93.2992 363.26 91.9058 364.762C90.5124 366.264 89.5957 368.146 89.2716 370.169C88.9475 372.192 89.2305 374.266 90.0848 376.128C90.9392 377.99 92.3265 379.557 94.0715 380.631C95.8164 381.705 97.8406 382.237 99.888 382.161C101.935 382.084 103.914 381.402 105.574 380.201C107.234 379 108.501 377.334 109.214 375.413C109.927 373.492 110.054 371.403 109.58 369.41C108.941 366.738 107.268 364.428 104.929 362.988C102.589 361.548 99.773 361.096 97.0998 361.73M101.1 378.36C99.8049 378.666 98.4485 378.581 97.2019 378.116C95.9552 377.651 94.8743 376.827 94.0958 375.748C93.3172 374.67 92.8759 373.384 92.8276 372.054C92.7793 370.725 93.1262 369.411 93.8244 368.278C94.5226 367.146 95.5409 366.246 96.7505 365.691C97.9601 365.137 99.3068 364.954 100.62 365.165C101.934 365.376 103.156 365.972 104.131 366.877C105.106 367.782 105.791 368.956 106.1 370.25C106.305 371.111 106.338 372.004 106.198 372.877C106.058 373.751 105.746 374.589 105.282 375.342C104.817 376.095 104.209 376.75 103.491 377.268C102.774 377.785 101.961 378.157 101.1 378.36" fill="white"/>
<path d="M109.84 358.28C109.949 358.745 109.918 359.233 109.751 359.681C109.583 360.129 109.287 360.517 108.899 360.797C108.511 361.076 108.049 361.235 107.571 361.252C107.093 361.269 106.621 361.144 106.214 360.893C105.807 360.642 105.483 360.277 105.284 359.842C105.085 359.407 105.019 358.923 105.094 358.451C105.17 357.979 105.384 357.54 105.708 357.189C106.033 356.838 106.455 356.591 106.92 356.48C107.23 356.404 107.552 356.391 107.867 356.441C108.182 356.49 108.484 356.602 108.756 356.77C109.028 356.937 109.263 357.157 109.449 357.416C109.635 357.675 109.768 357.969 109.84 358.28" fill="white"/>
<path d="M386.81 375.22C384.555 375.221 382.323 374.778 380.24 373.917C378.157 373.055 376.264 371.791 374.669 370.197C373.075 368.604 371.81 366.712 370.947 364.629C370.084 362.547 369.64 360.314 369.64 358.06C369.64 355.806 370.084 353.573 370.947 351.491C371.81 349.408 373.075 347.516 374.669 345.923C376.264 344.329 378.157 343.065 380.24 342.203C382.323 341.342 384.555 340.899 386.81 340.9V340.9C389.066 340.896 391.3 341.337 393.386 342.198C395.471 343.058 397.366 344.322 398.963 345.915C400.56 347.509 401.826 349.402 402.691 351.486C403.555 353.57 404 355.804 404 358.06C404 360.316 403.555 362.55 402.691 364.634C401.826 366.718 400.56 368.611 398.963 370.205C397.366 371.798 395.471 373.062 393.386 373.922C391.3 374.783 389.066 375.224 386.81 375.22V375.22Z" fill="#455A64"/>
<path d="M384.19 368.43H388.37V358H391.28L391.6 354.5H388.37V352.5C388.37 351.68 388.54 351.35 389.37 351.35H391.64V347.71H388.74C385.63 347.71 384.23 349.08 384.23 351.71V354.51H382V358H384.17L384.19 368.43Z" fill="white"/>
<path d="M328.27 470.05L190.38 470C182.423 470 174.793 466.839 169.167 461.213C163.541 455.587 160.38 447.956 160.38 440L160.44 94.32C160.44 90.3753 161.218 86.4693 162.729 82.8256C164.241 79.1819 166.456 75.8721 169.248 73.0856C172.04 70.299 175.354 68.0905 179.001 66.5864C182.648 65.0823 186.555 64.3121 190.5 64.32L328.38 64.4C336.336 64.4 343.967 67.5607 349.593 73.1868C355.219 78.8129 358.38 86.4435 358.38 94.4L358.32 440C358.326 443.948 357.554 447.859 356.046 451.507C354.538 455.156 352.325 458.472 349.533 461.263C346.741 464.055 343.426 466.268 339.777 467.776C336.129 469.284 332.218 470.057 328.27 470.05V470.05Z" fill="#263238"/>
<path d="M328.23 76.52H301.49C299.735 76.562 298.068 77.2962 296.852 78.5626C295.636 79.829 294.97 81.5247 295 83.28V88.13C295.02 89.0015 294.867 89.8685 294.552 90.6811C294.236 91.4938 293.764 92.2363 293.161 92.866C292.558 93.4958 291.837 94.0005 291.039 94.3512C290.241 94.7019 289.381 94.8918 288.51 94.91H236.4C235.528 94.8905 234.668 94.6994 233.87 94.3476C233.072 93.9958 232.351 93.4902 231.748 92.8596C231.145 92.2291 230.673 91.4859 230.357 90.6727C230.042 89.8595 229.89 88.992 229.91 88.12V83.24C229.945 81.4803 229.282 79.7784 228.066 78.5061C226.849 77.2338 225.179 76.4946 223.42 76.45H214H190.61C187.848 76.4434 185.112 76.9818 182.558 78.0342C180.004 79.0866 177.683 80.6324 175.728 82.5831C173.773 84.5337 172.222 86.851 171.163 89.4021C170.105 91.9532 169.56 94.688 169.56 97.45L169.49 434.86C169.49 440.43 171.702 445.771 175.641 449.709C179.579 453.647 184.92 455.86 190.49 455.86L328.11 455.94C330.867 455.94 333.598 455.397 336.146 454.341C338.694 453.286 341.009 451.739 342.959 449.789C344.909 447.839 346.456 445.524 347.511 442.976C348.567 440.429 349.11 437.698 349.11 434.94L349.18 97.52C349.18 91.9591 346.974 86.6252 343.047 82.6884C339.119 78.7516 333.791 76.5332 328.23 76.52Z" fill="white"/>
<path d="M330.24 103.93C330.24 104.02 326.76 104.12 322.48 104.15C318.2 104.18 314.71 104.15 314.71 104.06C314.71 103.97 318.18 103.86 322.47 103.83C326.76 103.8 330.24 103.84 330.24 103.93Z" fill="#263238"/>
<path d="M330.27 107.9C330.27 107.99 326.8 108.09 322.51 108.13C318.22 108.17 314.74 108.13 314.74 108.03C314.74 107.93 318.22 107.84 322.51 107.8C326.8 107.76 330.27 107.81 330.27 107.9Z" fill="#263238"/>
<path d="M330.31 111.87C330.31 111.96 326.83 112.07 322.54 112.1C318.25 112.13 314.78 112.1 314.77 112C314.76 111.9 318.25 111.81 322.54 111.77C326.83 111.73 330.31 111.78 330.31 111.87Z" fill="#263238"/>
<path d="M184 115.75H184.41H185.54L189.72 115.65L189.6 115.76C189.6 114.84 189.6 113.83 189.55 112.76C189.55 112.2 189.55 111.67 189.55 111.02C189.616 110.684 189.787 110.378 190.039 110.146C190.29 109.914 190.61 109.768 190.95 109.73C191.63 109.73 192.22 109.73 192.95 109.73C193.332 109.792 193.68 109.988 193.931 110.283C194.182 110.578 194.32 110.953 194.32 111.34C194.32 112.76 194.32 114.23 194.37 115.76L194.18 115.57H199.45L199.25 115.77C199.25 113.65 199.25 111.45 199.19 109.2C199.19 108.64 199.19 108.09 199.19 107.53C199.167 107.281 199.089 107.04 198.961 106.826C198.833 106.611 198.658 106.428 198.45 106.29L196.15 104.01L193.92 101.82L192.85 100.76C192.48 100.4 192.19 100.03 191.76 99.94C191.554 99.8858 191.338 99.8783 191.129 99.9181C190.919 99.9579 190.722 100.044 190.55 100.17C190.23 100.44 189.89 100.82 189.55 101.17L187.65 103.08C186.46 104.31 185.22 105.44 184.32 106.51C184.053 107.141 183.963 107.832 184.06 108.51C184.06 109.16 184.06 109.78 184.06 110.36C184.06 111.5 184.06 112.5 184.06 113.36C184.06 114.22 184.06 114.75 184.06 115.27C184.074 115.5 184.074 115.73 184.06 115.96C184.048 115.75 184.048 115.54 184.06 115.33C184.06 114.82 184.06 114.19 184.06 113.44C184.06 112.69 184.06 111.57 183.99 110.44C183.99 109.84 183.99 109.21 183.99 108.54C183.99 108.2 183.99 107.86 183.99 107.54C183.987 107.154 184.087 106.775 184.28 106.44C185.28 105.25 186.42 104.19 187.62 102.92L189.5 100.99C189.84 100.66 190.11 100.33 190.5 99.99C190.715 99.8261 190.964 99.7131 191.229 99.6594C191.494 99.6057 191.768 99.6128 192.03 99.68C192.528 99.8628 192.967 100.177 193.3 100.59L194.38 101.65L196.61 103.84L198.92 106.1C199.136 106.294 199.334 106.509 199.51 106.74C199.683 107.005 199.78 107.313 199.79 107.63C199.79 108.19 199.79 108.75 199.79 109.31C199.79 111.56 199.79 113.76 199.84 115.88V116.08H199.64H194.37H194V115.89C194 114.36 194 112.89 194 111.47C194.006 111.165 193.903 110.868 193.708 110.633C193.514 110.397 193.241 110.24 192.94 110.19C192.33 110.19 191.61 110.19 191.02 110.19C190.75 110.217 190.496 110.328 190.293 110.508C190.09 110.687 189.949 110.926 189.89 111.19C189.89 111.72 189.89 112.33 189.89 112.87C189.89 113.96 189.89 114.98 189.89 115.87V115.99H189.77H185.52H184.41C184.265 115.924 184.128 115.844 184 115.75Z" fill="#263238"/>
<path d="M275 379.41C274.52 379.485 274.035 379.519 273.55 379.51L269.61 379.59C266.29 379.64 261.69 379.67 256.61 379.67C251.53 379.67 246.93 379.67 243.61 379.59L239.67 379.51C239.184 379.518 238.699 379.485 238.22 379.41C238.699 379.329 239.184 379.295 239.67 379.31L243.61 379.22C246.93 379.22 251.53 379.15 256.61 379.15C261.69 379.15 266.28 379.15 269.61 379.22L273.55 379.31C274.035 379.295 274.521 379.328 275 379.41V379.41Z" fill="#455A64"/>
<path d="M332.77 388.45C332.77 388.6 311.6 388.71 285.49 388.71C259.38 388.71 238.21 388.6 238.21 388.45C238.21 388.3 259.38 388.19 285.49 388.19C311.6 388.19 332.77 388.31 332.77 388.45Z" fill="#455A64"/>
<path d="M303.22 397C303.22 397.15 288.67 397.26 270.72 397.26C252.77 397.26 238.21 397.15 238.21 397C238.21 396.85 252.76 396.74 270.72 396.74C288.68 396.74 303.22 396.82 303.22 397Z" fill="#455A64"/>
<path d="M334.64 413.53L331.7 410.58L328.9 413.37V404.93H334.63L334.64 413.53ZM331.7 410.21L331.79 410.3L334.38 412.9V405.2H329.17V412.75L331.7 410.21Z" fill="#263238"/>
<path d="M256.41 412.43L255.41 411.97C254.813 412.251 254.133 412.299 253.502 412.105C252.871 411.911 252.336 411.488 252 410.92C251.665 410.352 251.553 409.679 251.687 409.033C251.822 408.387 252.192 407.814 252.726 407.427C253.261 407.039 253.92 406.865 254.576 406.939C255.232 407.012 255.837 407.327 256.272 407.823C256.708 408.318 256.943 408.959 256.931 409.618C256.92 410.278 256.663 410.91 256.21 411.39L256.41 412.43ZM254 406.81C253.316 406.858 252.677 407.164 252.211 407.668C251.746 408.171 251.491 408.833 251.497 409.519C251.504 410.204 251.771 410.861 252.246 411.356C252.72 411.85 253.366 412.145 254.05 412.18C254.507 412.149 254.949 412.008 255.34 411.77V411.77L256.11 412.11L255.93 411.36C256.283 410.975 256.515 410.495 256.599 409.98C256.683 409.465 256.614 408.936 256.402 408.459C256.189 407.983 255.842 407.578 255.403 407.296C254.964 407.013 254.452 406.865 253.93 406.87L254 406.81Z" fill="#263238"/>
<path d="M263.07 412L261.89 409.1L259.66 407.1H265.06L263.07 412ZM260.16 407.27L262.06 409.01L263.06 411.48L264.76 407.23L260.16 407.27Z" fill="#263238"/>
<path d="M264.947 407.035L261.997 408.954L262.106 409.122L265.056 407.202L264.947 407.035Z" fill="#263238"/>
<path d="M247.9 407.66C247.82 407.274 247.607 406.929 247.298 406.685C246.988 406.442 246.602 406.315 246.209 406.328C245.815 406.342 245.439 406.493 245.146 406.757C244.854 407.021 244.664 407.38 244.61 407.77C244.556 407.375 244.363 407.013 244.065 406.748C243.767 406.483 243.384 406.333 242.986 406.326C242.587 406.319 242.199 406.454 241.892 406.708C241.585 406.962 241.378 407.317 241.31 407.71C241.233 408.286 241.38 408.869 241.72 409.34C242.058 409.803 242.455 410.22 242.9 410.58C243.51 411.11 244.06 411.58 244.66 412.14C245.26 411.6 245.76 411.09 246.36 410.55C246.8 410.182 247.19 409.759 247.52 409.29C247.855 408.817 247.991 408.232 247.9 407.66V407.66Z" fill="#B141E5"/>
<path d="M340.66 421C340.66 421 340.66 420.67 340.66 420.06C340.66 419.45 340.66 418.52 340.66 417.32C340.66 414.91 340.66 411.32 340.61 406.76C340.61 397.57 340.56 384.2 340.52 367.43L340.69 367.6L180.78 367.69L181.04 367.43C181.04 386.05 181.04 404.1 181.04 421L180.79 420.75L295.22 420.86L328.62 420.93H337.62H339.94H340.74H339.97H337.68H328.77L295.42 421L180.82 421.12H180.56V421C180.56 404.1 180.56 386.05 180.56 367.43V367.17H180.84L340.75 367.26H340.92V367.43C340.92 384.24 340.85 397.65 340.83 406.87C340.83 411.45 340.83 414.98 340.83 417.39C340.83 418.57 340.83 419.47 340.83 420.09C340.83 420.71 340.66 421 340.66 421Z" fill="#263238"/>
<path d="M187.402 376.387L187.198 411.806L231.497 412.061L231.701 376.642L187.402 376.387Z" fill="#EBEBEB"/>
<path d="M231.69 376.62H230.84H228.42H219.33L187.33 376.55L187.57 376.32C187.52 386.87 187.46 398.95 187.4 411.73C187.45 411.8 186.91 411.24 187.14 411.47H190.19H193.19H199.19L210.69 411.54L231.43 411.69L231.22 411.91C231.32 401.27 231.41 392.45 231.48 386.25C231.48 383.17 231.55 380.75 231.57 379.06C231.57 378.25 231.57 377.62 231.57 377.16C231.57 376.7 231.57 376.49 231.57 376.49C231.57 376.49 231.57 376.69 231.57 377.11C231.57 377.53 231.57 378.18 231.57 378.98C231.57 380.65 231.57 383.06 231.57 386.12C231.57 392.35 231.57 401.22 231.57 411.91V412.12H231.35L210.61 412.04L199.11 411.98H193.11H190.11H187.06L186.79 411.71C186.88 398.92 186.95 386.84 187.02 376.3V376.06H187.26L219.36 376.35L228.36 376.47H230.73H231.33L231.69 376.62Z" fill="#263238"/>
<path d="M188.919 378.626L188.741 409.585L229.93 409.822L230.108 378.863L188.919 378.626Z" fill="#E0E0E0"/>
<path d="M188.72 409.56L203.22 390.4L212.06 402.49L218.14 396.09L229.91 409.8L188.72 409.56Z" fill="#F5F5F5"/>
<path d="M215.93 388.12C215.928 388.763 215.735 389.391 215.376 389.925C215.016 390.458 214.507 390.873 213.912 391.117C213.317 391.361 212.662 391.423 212.032 391.295C211.402 391.167 210.824 390.854 210.371 390.397C209.918 389.94 209.611 389.36 209.489 388.728C209.367 388.097 209.434 387.443 209.684 386.85C209.933 386.257 210.353 385.752 210.89 385.397C211.427 385.043 212.056 384.856 212.7 384.86C213.126 384.861 213.548 384.947 213.941 385.111C214.334 385.276 214.691 385.517 214.991 385.82C215.291 386.122 215.529 386.482 215.69 386.876C215.851 387.271 215.932 387.694 215.93 388.12V388.12Z" fill="#F5F5F5"/>
<path d="M262.09 146.87C261.931 146.897 261.769 146.897 261.61 146.87L260.26 146.92L255.26 147.01C251.05 147.01 245.26 147.08 238.8 147.08C232.34 147.08 226.55 147.08 222.34 147.01L217.34 146.92L215.98 146.87C215.824 146.898 215.665 146.898 215.51 146.87C215.663 146.832 215.822 146.815 215.98 146.82H217.34L222.34 146.74C226.55 146.69 232.34 146.66 238.8 146.66C245.26 146.66 251.05 146.66 255.26 146.74L260.26 146.82H261.61C261.771 146.816 261.933 146.833 262.09 146.87Z" fill="#263238"/>
<path d="M327.53 342.65L323.17 338.27L319 342.42V329.88H327.52L327.53 342.65ZM323.17 337.73L323.3 337.86L327.15 341.72V330.28H319.39V341.5L323.17 337.73Z" fill="#263238"/>
<path d="M216.67 341.33L214.67 340.42C213.505 340.962 212.18 341.049 210.954 340.666C209.728 340.283 208.69 339.456 208.041 338.348C207.392 337.239 207.18 335.929 207.446 334.672C207.712 333.416 208.437 332.304 209.48 331.553C210.522 330.803 211.807 330.468 213.083 330.615C214.359 330.762 215.534 331.379 216.38 332.346C217.225 333.313 217.679 334.561 217.653 335.845C217.627 337.129 217.123 338.358 216.24 339.29L216.67 341.33ZM211.9 330.28C211.206 330.286 210.521 330.428 209.883 330.699C209.244 330.97 208.666 331.364 208.179 331.858C207.693 332.353 207.309 332.938 207.049 333.581C206.79 334.224 206.659 334.912 206.665 335.605C206.671 336.298 206.813 336.984 207.084 337.622C207.355 338.26 207.749 338.839 208.243 339.325C208.738 339.811 209.323 340.195 209.966 340.455C210.609 340.715 211.296 340.846 211.99 340.84C212.889 340.786 213.762 340.511 214.53 340.04L214.62 339.99L216.12 340.66L215.78 339.18L215.85 339.11C216.544 338.352 217.002 337.407 217.167 336.392C217.331 335.377 217.195 334.336 216.775 333.398C216.355 332.459 215.67 331.664 214.804 331.11C213.937 330.556 212.928 330.267 211.9 330.28V330.28Z" fill="#263238"/>
<path d="M229.79 340.46L227.45 334.75L223.07 330.75L233.71 330.67L229.79 340.46ZM224.06 331.13L227.8 334.56L229.8 339.42L233.14 331.06L224.06 331.13Z" fill="#263238"/>
<path d="M233.498 330.653L227.698 334.427L227.91 334.753L233.711 330.979L233.498 330.653Z" fill="#263238"/>
<path d="M199.93 332C199.779 331.234 199.361 330.547 198.75 330.062C198.139 329.576 197.376 329.323 196.596 329.348C195.816 329.374 195.07 329.675 194.492 330.2C193.914 330.724 193.541 331.436 193.44 332.21C193.325 331.439 192.941 330.735 192.355 330.221C191.769 329.707 191.02 329.418 190.241 329.405C189.463 329.392 188.704 329.655 188.101 330.149C187.499 330.642 187.091 331.334 186.95 332.1C186.8 333.231 187.09 334.377 187.76 335.3C188.431 336.211 189.214 337.034 190.09 337.75C191.28 338.75 192.37 339.75 193.56 340.82C194.72 339.76 195.72 338.76 196.89 337.69C197.754 336.963 198.524 336.129 199.18 335.21C199.831 334.275 200.099 333.127 199.93 332V332Z" fill="#B141E5"/>
<path d="M198.96 154.09C202.947 154.09 206.18 150.857 206.18 146.87C206.18 142.883 202.947 139.65 198.96 139.65C194.972 139.65 191.74 142.883 191.74 146.87C191.74 150.857 194.972 154.09 198.96 154.09Z" fill="#EBEBEB"/>
<path d="M324.81 301.25C324.81 301.4 294.55 301.52 257.23 301.52C219.91 301.52 189.64 301.4 189.64 301.25C189.64 301.1 219.9 300.99 257.23 300.99C294.56 300.99 324.81 301.11 324.81 301.25Z" fill="#455A64"/>
<path d="M324.81 290C324.81 290.14 294.55 290.26 257.23 290.26C219.91 290.26 189.64 290.14 189.64 290C189.64 289.86 219.9 289.74 257.23 289.74C294.56 289.74 324.81 289.86 324.81 290Z" fill="#455A64"/>
<path d="M263.21 312.66C263.21 312.8 246.74 312.92 226.43 312.92C206.12 312.92 189.64 312.8 189.64 312.66C189.64 312.52 206.11 312.4 226.43 312.4C246.75 312.4 263.21 312.52 263.21 312.66Z" fill="#455A64"/>
<path d="M254.14 435.29C254.13 435.858 253.952 436.411 253.629 436.878C253.306 437.346 252.851 437.707 252.323 437.917C251.795 438.126 251.217 438.175 250.661 438.057C250.105 437.938 249.596 437.658 249.199 437.252C248.802 436.845 248.535 436.33 248.43 435.771C248.325 435.213 248.388 434.636 248.61 434.113C248.833 433.59 249.205 433.144 249.68 432.832C250.155 432.521 250.712 432.356 251.28 432.36C251.66 432.364 252.036 432.443 252.386 432.592C252.736 432.742 253.053 432.959 253.318 433.231C253.584 433.503 253.793 433.825 253.934 434.179C254.075 434.532 254.145 434.91 254.14 435.29V435.29Z" fill="#263238"/>
<path d="M263 435.33C262.988 435.895 262.81 436.445 262.487 436.909C262.164 437.373 261.711 437.732 261.185 437.939C260.659 438.147 260.084 438.195 259.531 438.077C258.978 437.958 258.472 437.679 258.077 437.275C257.682 436.87 257.415 436.358 257.31 435.802C257.206 435.246 257.267 434.672 257.488 434.151C257.708 433.631 258.077 433.187 258.549 432.875C259.021 432.563 259.575 432.398 260.14 432.4C260.521 432.403 260.897 432.481 261.248 432.63C261.598 432.779 261.916 432.996 262.181 433.268C262.447 433.541 262.657 433.863 262.797 434.217C262.938 434.571 263.007 434.949 263 435.33V435.33Z" fill="#263238"/>
<path d="M271.93 435.37C271.918 435.935 271.739 436.485 271.416 436.949C271.094 437.413 270.641 437.772 270.115 437.979C269.589 438.187 269.013 438.235 268.46 438.117C267.907 437.998 267.402 437.719 267.007 437.315C266.612 436.91 266.345 436.398 266.24 435.842C266.135 435.286 266.197 434.712 266.417 434.191C266.638 433.671 267.007 433.227 267.479 432.915C267.951 432.603 268.504 432.438 269.07 432.44C269.45 432.444 269.826 432.523 270.176 432.672C270.526 432.822 270.842 433.039 271.108 433.311C271.374 433.583 271.583 433.905 271.724 434.259C271.865 434.612 271.935 434.99 271.93 435.37V435.37Z" fill="#263238"/>
<path d="M341.62 161.15H181.69V258.95H341.62V161.15Z" fill="#E0E0E0"/>
<path d="M196.46 258.98L242.28 197.64L270.7 236L289.95 215.48L327.72 258.94L196.46 258.98Z" fill="#F5F5F5"/>
<path d="M282.74 190.11C282.742 192.155 282.137 194.156 281.002 195.857C279.867 197.559 278.253 198.886 276.364 199.67C274.475 200.454 272.395 200.66 270.389 200.263C268.383 199.865 266.539 198.881 265.092 197.435C263.645 195.989 262.659 194.147 262.259 192.141C261.86 190.135 262.064 188.055 262.846 186.165C263.628 184.275 264.954 182.66 266.654 181.523C268.355 180.387 270.355 179.78 272.4 179.78C275.141 179.78 277.769 180.868 279.708 182.805C281.647 184.742 282.737 187.369 282.74 190.11Z" fill="#F5F5F5"/>
<path d="M341.19 349.85C341.19 347.76 341.09 259.41 340.95 128.61L341.19 128.85H181.28L181.54 128.59C181.54 211.33 181.54 287.9 181.54 349.83L181.32 349.62L341.25 349.83L181.32 350.05H181.11V349.83C181.11 287.9 181.11 211.33 181.06 128.59V128.33H181.34H341.25H341.49V128.56C341.44 194.03 341.4 249.36 341.37 288.34C341.37 307.8 341.32 323.17 341.31 333.69C341.31 338.93 341.31 342.96 341.31 345.69C341.31 347.04 341.31 348.07 341.31 348.77C341.31 349.47 341.19 349.85 341.19 349.85Z" fill="#263238"/>
<path d="M266 377.3L269.54 365.41C270.16 362.83 270.98 359.79 272.08 356.32C273.08 353.2 275.62 349.92 277.94 347.56C281.55 343.89 283.27 343.87 285.69 341.92C285.91 341.78 286.16 341.57 286.37 341.46C286.828 341.211 287.229 340.87 287.55 340.46C289.64 338.2 287.63 334.69 283.38 335.03C280.19 335.28 274.97 336.19 266.49 344.94C266.38 345.08 266.27 345.19 266.17 345.32C261.72 351.11 257.54 334.59 256.78 328.44C256.633 327.487 256.273 326.579 255.727 325.784C255.181 324.989 254.463 324.327 253.627 323.846C252.79 323.366 251.857 323.08 250.895 323.01C249.933 322.94 248.967 323.087 248.07 323.44L227.41 333.1C225.439 332.528 223.338 332.598 221.41 333.3C219.964 333.807 218.76 334.836 218.031 336.183C217.302 337.531 217.102 339.102 217.47 340.59L225.86 374L201.25 455.9H254.3L266 377.3Z" fill="#FFBE9D"/>
<path d="M306.8 302.08L290.4 334.22L282.2 331.94L241 365.47C239.318 366.846 237.166 367.511 235.002 367.324C232.837 367.138 230.831 366.113 229.41 364.47L213.71 346.24C213.71 346.24 245.36 332.61 251.21 321.33C257.06 310.05 250.3 307.48 250.3 307.48L265.19 290.56L306.8 302.08Z" fill="#B141E5"/>
<path d="M285.53 236.44C285.53 236.44 261.53 231.13 227.74 198.65C193.95 166.17 178.09 123 174 123.24C169.91 123.48 151.81 115.07 117.47 189.76C83.1298 264.45 96.6598 281.76 103.47 281.66C110.28 281.56 156.69 268.59 185.67 271.88C214.65 275.17 251.9 290.28 251.9 290.28L285.53 236.44Z" fill="#B141E5"/>
<path d="M336.52 277.15L328.33 292.72L324.66 299.72C322.237 304.328 318.139 307.83 313.21 309.505C308.281 311.179 302.898 310.899 298.17 308.72L246.72 290.79L276.72 222.39L328.12 249.78C332.848 252.31 336.385 256.607 337.959 261.734C339.532 266.861 339.015 272.403 336.52 277.15Z" fill="#B141E5"/>
<g opacity="0.4">
<path d="M336.52 277.15L328.33 292.72L324.66 299.72C322.237 304.328 318.139 307.83 313.21 309.505C308.281 311.179 302.898 310.899 298.17 308.72L246.72 290.79L276.72 222.39L328.12 249.78C332.848 252.31 336.385 256.607 337.959 261.734C339.532 266.861 339.015 272.403 336.52 277.15Z" fill="black"/>
</g>
<path d="M120.21 191.12C101.94 231.58 94.3298 267.64 103.21 271.65C112.09 275.66 134.12 246.12 152.39 205.65C170.66 165.18 178.27 129.14 169.39 125.12C160.51 121.1 138.48 150.66 120.21 191.12Z" fill="#B141E5"/>
<g opacity="0.5">
<path d="M120.21 191.12C101.94 231.58 94.3298 267.64 103.21 271.65C112.09 275.66 134.12 246.12 152.39 205.65C170.66 165.18 178.27 129.14 169.39 125.12C160.51 121.1 138.48 150.66 120.21 191.12Z" fill="black"/>
</g>
<path d="M340.94 299.65L326.99 295.27L335.62 278.87L346.08 285.37L340.94 299.65Z" fill="#B141E5"/>
<g opacity="0.6">
<path d="M335.62 278.87L326.99 295.27L329.86 296.17L336.87 279.64L335.62 278.87Z" fill="black"/>
</g>
<path d="M326 282.65C325.8 283.1 318.84 280.4 310.46 276.65C302.08 272.9 295.46 269.42 295.65 268.97C295.84 268.52 302.81 271.23 311.2 275.02C319.59 278.81 326.21 282.2 326 282.65Z" fill="#B141E5"/>
<path d="M330.3 272.88C330.08 273.32 323.78 270.67 316.23 266.95C308.68 263.23 302.74 259.86 302.96 259.41C303.18 258.96 309.47 261.62 317.02 265.34C324.57 269.06 330.52 272.43 330.3 272.88Z" fill="#B141E5"/>
<path d="M320.6 292.9C320.53 293.14 318.87 292.76 316.23 291.9C314.91 291.49 313.34 290.97 311.61 290.38C309.88 289.79 308.11 288.85 306.2 287.98C298.57 284.44 292.74 280.98 292.93 280.56C293.12 280.14 299.39 282.85 306.93 286.36C308.83 287.22 310.59 288.16 312.25 288.85C313.91 289.54 315.4 290.15 316.65 290.71C319.15 291.86 320.67 292.66 320.6 292.9Z" fill="#B141E5"/>
<path d="M157.46 182.13C157.46 182.13 136.6 169.19 125.19 197.38C113.78 225.57 135.72 230.2 135.72 230.2C145.194 215.281 152.513 199.097 157.46 182.13V182.13Z" fill="#B141E5"/>
<g opacity="0.5">
<path d="M179.65 148.53C179.78 148.53 179.48 150.47 178.84 153.92C178.2 157.37 177.24 162.36 175.9 168.5L173 178.37C172.473 180.137 171.93 181.967 171.37 183.86L170.52 186.73C170.21 187.73 169.8 188.64 169.44 189.61L164.73 201.77C164.32 202.83 163.9 203.89 163.49 204.96C163.08 206.03 162.49 207.05 162.02 208.11L158.92 214.51L155.81 220.9C155.28 221.9 154.81 223.02 154.24 224C153.67 224.98 153.07 226 152.5 226.95L145.85 238.18C145.31 239.06 144.85 239.97 144.25 240.81L142.52 243.26L139.2 247.94L133.2 256.31C129.2 261.14 125.86 264.95 123.56 267.6C122.43 269.035 121.183 270.373 119.83 271.6C120.77 270.039 121.841 268.56 123.03 267.18C125.25 264.35 128.38 260.39 132.22 255.52L137.97 247.09L141.19 242.4C141.75 241.6 142.31 240.78 142.88 239.95C143.45 239.12 143.88 238.21 144.43 237.32L151 226.1L152.71 223.16C153.3 222.16 153.71 221.16 154.26 220.08L157.34 213.73C158.34 211.58 159.41 209.47 160.43 207.38C160.91 206.38 161.49 205.32 161.89 204.26L163.14 201.1L167.92 189.1C168.29 188.1 168.71 187.21 169.03 186.25C169.35 185.29 169.62 184.35 169.91 183.41L171.61 177.98L174.68 168.23L178.15 153.83C178.498 152.024 179 150.251 179.65 148.53V148.53Z" fill="black"/>
</g>
<g opacity="0.4">
<path d="M218.69 344C220.6 347.46 222.54 351 225.35 353.73C228.16 356.46 232 358.4 236 358C240 357.6 243.65 354.34 243.69 350.4C245.57 351.81 248.46 351.05 250.02 349.28C251.58 347.51 252.09 345.06 252.27 342.71C254.83 344.22 258.39 343.03 260.1 340.6C260.885 339.334 261.382 337.911 261.555 336.432C261.727 334.952 261.572 333.453 261.1 332.04C260.126 329.228 258.741 326.576 256.99 324.17C258.99 324.33 261.05 324.47 262.81 323.58C264.57 322.69 265.81 320.35 264.74 318.67C264.037 317.732 263.017 317.082 261.87 316.84C258.78 315.84 256.62 315.1 253.4 315.47C252.66 315.47 254.69 323.95 234.52 335.53C222.55 342.38 218.69 344 218.69 344Z" fill="black"/>
</g>
<path d="M264.11 356.2C264.11 356.29 262.76 356.03 260.58 356.09C257.747 356.158 254.961 356.826 252.406 358.052C249.851 359.278 247.585 361.033 245.76 363.2C244.35 364.86 243.76 366.07 243.63 366.02C243.713 365.708 243.845 365.411 244.02 365.14C244.448 364.378 244.933 363.649 245.47 362.96C247.268 360.679 249.564 358.84 252.184 357.584C254.803 356.329 257.675 355.692 260.58 355.72C261.452 355.725 262.322 355.806 263.18 355.96C263.502 355.984 263.816 356.066 264.11 356.2V356.2Z" fill="#EB996E"/>
<path d="M220 338.59C223.25 341.71 225.47 345.16 228.88 348.3C230.43 349.73 232.88 352.43 234.88 352.79C236.88 353.15 238.28 352.88 239.1 350.94C239.77 349.37 238.57 347.22 237.75 345.94C235.58 342.53 233.5 339.87 231.88 337.22C231.11 335.98 232.1 335.72 232.46 336.3C234.02 337.92 236.36 339.3 237.76 341.09C239.68 343.5 240.02 346.71 245.04 345.69C245.711 345.581 246.348 345.318 246.9 344.92C248.79 343.47 248.9 340.92 248.08 338.92C247.372 337.376 246.427 335.952 245.28 334.7C247.42 337.11 249.75 339.7 253.15 339.92C254.11 340.036 255.083 339.852 255.934 339.391C256.785 338.931 257.472 338.218 257.9 337.35C258.9 335.07 257.47 332.86 256.02 331.08C253.453 327.915 250.598 324.996 247.49 322.36C246.329 321.385 244.866 320.844 243.35 320.83C241.59 320.83 239.35 321.15 238.35 322.67C237.779 323.403 237.363 324.245 237.127 325.144C236.892 326.043 236.842 326.981 236.98 327.9C236.98 327.9 232.58 325.67 229.04 328C226.861 329.531 225.295 331.784 224.62 334.36L220 338.59Z" fill="#FFBE9D"/>
<path d="M243.45 319.87C242.746 319.053 242.31 318.04 242.199 316.967C242.088 315.895 242.308 314.814 242.83 313.87C243.58 312.4 244.52 310.97 245.48 310.65C249.67 309.24 267.99 312.41 267.82 316.47C267.65 320.53 266.31 322.47 256.38 321.04C254.63 320.79 251.89 320.45 251.89 320.45L249.49 324.05L243.45 319.87Z" fill="#FFBE9D"/>
<path d="M246.73 336.89C244.325 332.926 240.82 329.746 236.64 327.74C237.322 327.85 237.978 328.08 238.58 328.42C241.59 329.875 244.117 332.167 245.86 335.02C246.263 335.584 246.558 336.218 246.73 336.89Z" fill="#EB996E"/>
<path d="M249.81 324.4C249.72 324.48 248.51 323.5 246.86 322.49C246.17 322.053 245.455 321.656 244.72 321.3C244.15 321.04 243.77 320.97 243.78 320.89C243.79 320.81 244.21 320.77 244.84 320.96C245.651 321.221 246.425 321.587 247.14 322.05C248.83 323.08 249.94 324.29 249.81 324.4Z" fill="#EB996E"/>
<path d="M252.89 320.62C251.698 320.759 250.49 320.622 249.36 320.22C248.533 319.967 247.765 319.552 247.1 319C246.6 318.57 246.39 318.22 246.44 318.17C247.402 318.792 248.432 319.302 249.51 319.69C250.656 319.925 251.785 320.235 252.89 320.62Z" fill="#EB996E"/>
<path d="M235.09 341.92C234.459 341.257 233.899 340.53 233.42 339.75C232.278 337.903 230.835 336.26 229.15 334.89C227.404 333.612 225.239 333.041 223.09 333.29C222.208 333.448 221.351 333.72 220.54 334.1C220.54 334.1 220.72 333.89 221.13 333.64C221.714 333.286 222.358 333.042 223.03 332.92C224.149 332.739 225.294 332.783 226.396 333.049C227.498 333.315 228.536 333.798 229.45 334.47C231.19 335.868 232.643 337.59 233.73 339.54C234.249 340.294 234.704 341.09 235.09 341.92V341.92Z" fill="#EB996E"/>
<path d="M249.1 382.42C246.633 382.945 244.134 383.302 241.62 383.49C239.119 383.852 236.596 384.039 234.07 384.05C236.54 383.526 239.042 383.168 241.56 382.98C244.058 382.624 246.577 382.437 249.1 382.42V382.42Z" fill="#EB996E"/>
<path d="M406.63 49.84L407.76 51.91L409.82 53.04L407.76 54.17L406.63 56.23L405.5 54.17L403.44 53.04L405.5 51.91L406.63 49.84Z" fill="#B141E5"/>
<path d="M430.24 101.01L431.37 103.08L433.43 104.21L431.37 105.34L430.24 107.4L429.11 105.34L427.04 104.21L429.11 103.08L430.24 101.01Z" fill="#B141E5"/>
<path d="M51.9 237.53L53.03 239.6L55.1 240.73L53.03 241.85L51.9 243.92L50.77 241.85L48.71 240.73L50.77 239.6L51.9 237.53Z" fill="#B141E5"/>
<path d="M375.66 62.56L378.27 67.33L383.04 69.94L378.27 72.54L375.66 77.31L373.06 72.54L368.29 69.94L373.06 67.33L375.66 62.56Z" fill="#B141E5"/>
<path d="M73.0602 205.1L75.6602 209.85L80.4202 212.45L75.6602 215.06L73.0602 219.81L70.4602 215.06L65.7002 212.45L70.4602 209.85L73.0602 205.1Z" fill="#B141E5"/>
<path d="M436.66 318.56L439.26 323.32L444.01 325.92L439.26 328.52L436.66 333.28L434.06 328.52L429.3 325.92L434.06 323.32L436.66 318.56Z" fill="#B141E5"/>
</svg>
