<svg width="50" height="50" viewBox="0 0 50 50" fill="none" xmlns="http://www.w3.org/2000/svg">
<g clip-path="url(#clip0_255_120)">
<path d="M25 43.75C20.0272 43.75 15.2581 41.7746 11.7417 38.2582C8.22544 34.7419 6.25 29.9728 6.25 25C6.25 20.0272 8.22544 15.2581 11.7417 11.7417C15.2581 8.22544 20.0272 6.25 25 6.25C35.3542 6.25 43.75 13.7125 43.75 22.9167C43.75 25.125 42.7625 27.2458 41.0042 28.8083C39.2458 30.3708 36.8604 31.25 34.375 31.25H29.1667C28.2372 31.235 27.3294 31.5313 26.5877 32.0917C25.8461 32.652 25.3131 33.4443 25.0736 34.3425C24.834 35.2407 24.9018 36.1932 25.2659 37.0485C25.6301 37.9038 26.2698 38.6127 27.0833 39.0625C27.4993 39.4463 27.7846 39.9508 27.899 40.5051C28.0135 41.0594 27.9515 41.6357 27.7216 42.1529C27.4917 42.6701 27.1056 43.1023 26.6174 43.3888C26.1293 43.6752 25.5636 43.8016 25 43.75" stroke="white" stroke-width="4" stroke-linecap="round" stroke-linejoin="round"/>
<path d="M17.7083 23.9583C18.8589 23.9583 19.7917 23.0256 19.7917 21.875C19.7917 20.7244 18.8589 19.7917 17.7083 19.7917C16.5577 19.7917 15.625 20.7244 15.625 21.875C15.625 23.0256 16.5577 23.9583 17.7083 23.9583Z" stroke="white" stroke-width="4" stroke-linecap="round" stroke-linejoin="round"/>
<path d="M26.0418 17.7083C27.1924 17.7083 28.1252 16.7756 28.1252 15.625C28.1252 14.4744 27.1924 13.5417 26.0418 13.5417C24.8912 13.5417 23.9585 14.4744 23.9585 15.625C23.9585 16.7756 24.8912 17.7083 26.0418 17.7083Z" stroke="white" stroke-width="4" stroke-linecap="round" stroke-linejoin="round"/>
<path d="M34.3748 23.9583C35.5254 23.9583 36.4582 23.0256 36.4582 21.875C36.4582 20.7244 35.5254 19.7917 34.3748 19.7917C33.2242 19.7917 32.2915 20.7244 32.2915 21.875C32.2915 23.0256 33.2242 23.9583 34.3748 23.9583Z" stroke="white" stroke-width="4" stroke-linecap="round" stroke-linejoin="round"/>
</g>
<defs>
<clipPath id="clip0_255_120">
<rect width="50" height="50" fill="white"/>
</clipPath>
</defs>
</svg>
