<svg width="50" height="50" viewBox="0 0 50 50" fill="none" xmlns="http://www.w3.org/2000/svg">
<g clip-path="url(#clip0_257_132)">
<path d="M24.9998 27.0833C26.1504 27.0833 27.0832 26.1506 27.0832 25C27.0832 23.8494 26.1504 22.9167 24.9998 22.9167C23.8492 22.9167 22.9165 23.8494 22.9165 25C22.9165 26.1506 23.8492 27.0833 24.9998 27.0833Z" stroke="white" stroke-width="4" stroke-linecap="round" stroke-linejoin="round"/>
<path d="M25.0002 14.5833C22.9399 14.5833 20.926 15.1943 19.213 16.3389C17.5 17.4835 16.1648 19.1103 15.3764 21.0137C14.588 22.9171 14.3817 25.0116 14.7837 27.0322C15.1856 29.0528 16.1777 30.9089 17.6345 32.3657C19.0913 33.8225 20.9473 34.8146 22.968 35.2165C24.9886 35.6184 27.0831 35.4122 28.9865 34.6237C30.8899 33.8353 32.5167 32.5002 33.6613 30.7872C34.8059 29.0742 35.4168 27.0602 35.4168 25" stroke="white" stroke-width="4" stroke-linecap="round" stroke-linejoin="round"/>
<path d="M27.0919 6.36458C23.2295 5.93127 19.328 6.70892 15.9269 8.58994C12.5258 10.471 9.79332 13.3624 8.10739 16.8643C6.42146 20.3662 5.86542 24.3054 6.51618 28.1372C7.16695 31.9689 8.99235 35.5037 11.7399 38.2526C14.4874 41.0015 18.0213 42.8287 21.8527 43.4814C25.6841 44.1341 29.6236 43.58 33.1264 41.8959C36.6291 40.2117 39.5219 37.4807 41.4047 34.0805C43.2874 30.6804 44.067 26.7792 43.6356 22.9167" stroke="white" stroke-width="4" stroke-linecap="round" stroke-linejoin="round"/>
<path d="M31.25 12.5V18.75H37.5L43.75 12.5H37.5V6.25L31.25 12.5Z" stroke="white" stroke-width="4" stroke-linecap="round" stroke-linejoin="round"/>
<path d="M31.25 18.75L25 25" stroke="white" stroke-width="4" stroke-linecap="round" stroke-linejoin="round"/>
</g>
<defs>
<clipPath id="clip0_257_132">
<rect width="50" height="50" fill="white"/>
</clipPath>
</defs>
</svg>